<?xml version="1.0" standalone="no"?>
<!DOCTYPE svg PUBLIC "-//W3C//DTD SVG 20010904//EN"
 "http://www.w3.org/TR/2001/REC-SVG-20010904/DTD/svg10.dtd">
<svg version="1.0" xmlns="http://www.w3.org/2000/svg"
 width="200.000000pt" height="200.000000pt" viewBox="0 0 200.000000 200.000000"
 preserveAspectRatio="xMidYMid meet">
<metadata>
Created by potrace 1.11, written by Peter Selinger 2001-2013
</metadata>
<g transform="translate(0.000000,200.000000) scale(0.100000,-0.100000)"
fill="#000000" stroke="none">
<path d="M26 1640 l-27 -5 30 -18 c17 -10 31 -24 31 -32 0 -7 6 -16 13 -18 8
-4 8 -6 -2 -6 -12 -1 -11 -4 2 -13 9 -7 18 -28 20 -46 2 -17 7 -35 12 -40 5
-4 5 -1 0 7 -6 10 -4 12 4 7 7 -5 10 -10 8 -13 -3 -2 8 -30 23 -61 17 -35 24
-59 17 -63 -6 -4 -4 -15 7 -30 9 -13 16 -19 16 -14 1 15 21 -23 26 -48 2 -12
8 -23 14 -25 5 -2 10 -8 10 -13 0 -4 -6 -6 -14 -3 -8 3 -17 1 -21 -5 -4 -7 0
-8 11 -4 12 4 15 3 10 -5 -5 -8 -1 -10 10 -5 11 4 15 3 11 -4 -4 -6 -1 -14 5
-17 7 -3 3 -3 -10 0 -12 3 -22 1 -22 -5 0 -6 3 -10 8 -10 4 1 16 1 27 0 17 -1
18 -3 5 -11 -13 -8 -12 -10 3 -10 9 0 17 -6 17 -12 0 -7 7 -26 15 -42 9 -16
13 -36 10 -43 -2 -8 -1 -12 4 -9 10 7 37 -53 33 -73 -2 -7 1 -10 6 -7 10 6 25
-30 22 -53 -1 -8 4 -10 12 -6 7 3 4 -1 -7 -10 -20 -17 -20 -17 5 -10 23 7 24
7 10 -10 -8 -11 -10 -16 -4 -12 10 6 29 -18 21 -26 -1 -1 8 -16 20 -33 15 -21
19 -35 12 -45 -12 -19 -11 -29 2 -29 5 0 8 4 4 9 -3 5 -1 12 3 15 5 3 9 -9 9
-27 -1 -23 3 -32 15 -31 10 1 14 -5 11 -17 -3 -12 0 -19 8 -19 8 -1 3 -7 -11
-16 -21 -12 -21 -14 -4 -9 29 7 51 -19 34 -40 -7 -8 -17 -12 -23 -8 -6 4 -7 1
-3 -6 5 -7 11 -10 14 -7 3 3 12 0 21 -7 14 -11 14 -10 2 5 -8 12 -9 18 -2 18
6 0 14 -12 17 -27 4 -15 13 -34 21 -41 15 -16 17 -32 3 -32 -5 0 -10 -4 -10
-10 0 -5 6 -7 14 -4 11 4 25 -12 30 -36 1 -3 7 -15 14 -27 11 -20 10 -22 -5
-17 -10 3 -7 -2 7 -10 22 -14 21 -21 -3 -17 -5 1 -6 -3 -2 -9 3 -6 10 -8 15
-5 15 9 23 -17 9 -27 -11 -8 -10 -9 3 -5 9 3 19 1 22 -6 3 -9 7 -9 14 1 7 11
10 11 15 -2 4 -9 1 -15 -5 -13 -6 1 -13 -5 -15 -13 -3 -10 -2 -11 4 -4 4 6 16
10 25 8 10 -1 21 2 24 7 3 5 0 8 -6 7 -7 -2 -14 5 -15 15 -2 11 1 14 8 10 7
-4 21 -8 32 -10 11 -1 14 1 7 3 -6 3 -9 11 -6 16 4 7 2 8 -4 4 -7 -4 -12 -2
-12 4 0 6 -5 8 -12 4 -7 -4 -8 -3 -4 4 4 6 14 8 23 5 12 -5 14 -3 8 7 -6 10
-4 11 6 4 19 -12 39 -14 36 -4 -1 5 7 16 18 24 l20 16 -20 -7 c-18 -6 -18 -5
-6 10 7 9 17 14 22 11 5 -3 8 0 7 8 -2 8 5 12 19 11 l23 -3 -21 24 c-19 22
-57 26 -44 5 3 -4 13 -5 23 -2 10 4 5 -6 -13 -25 -16 -18 -31 -37 -31 -42 -3
-23 -6 -24 -15 -2 -5 13 -13 20 -19 17 -16 -10 -11 1 7 16 10 8 14 9 10 2 -14
-23 11 -22 26 1 11 16 13 26 5 34 -14 14 23 34 42 22 7 -4 20 -6 28 -2 11 4
13 1 7 -8 -5 -9 -4 -11 4 -6 9 6 9 11 -1 24 -11 14 -10 15 7 8 11 -4 16 -4 12
0 -4 4 -1 14 5 23 10 13 10 14 -2 3 -22 -19 -35 -14 -16 7 10 11 24 17 32 14
9 -3 14 0 12 8 -2 8 3 13 10 11 8 -1 11 2 7 8 -3 5 -1 10 6 10 7 0 4 7 -7 16
-17 14 -17 15 -1 10 10 -3 16 -2 12 3 -3 5 1 12 7 15 7 3 2 3 -12 -1 -22 -5
-23 -4 -11 10 7 9 11 23 8 31 -4 11 0 13 19 10 24 -4 33 9 14 21 -6 4 1 19 17
36 32 33 56 40 27 7 -10 -12 -14 -18 -7 -15 6 4 13 4 16 0 2 -5 2 -2 1 4 -2 7
7 19 18 27 12 9 18 19 14 23 -4 4 -11 1 -15 -6 -7 -10 -10 -9 -16 8 -3 12 -11
18 -17 15 -7 -4 -6 -9 2 -14 9 -5 9 -9 1 -14 -10 -6 -15 6 -12 27 1 9 -13 9
-22 0 -4 -3 1 -15 10 -25 14 -15 14 -19 3 -16 -8 2 -14 -3 -12 -10 1 -8 -2
-11 -9 -6 -8 5 -9 3 -4 -6 5 -8 4 -11 -3 -6 -7 4 -10 -1 -7 -14 3 -13 0 -18
-7 -14 -7 5 -8 2 -3 -5 6 -10 3 -11 -13 -2 -19 10 -20 8 -18 -24 2 -21 -1 -32
-7 -28 -6 3 -7 1 -4 -4 4 -6 0 -16 -9 -23 -12 -11 -12 -15 -2 -21 10 -7 10 -9
-1 -9 -7 0 -11 -6 -7 -15 9 -26 -3 -16 -18 14 -13 25 -13 31 0 50 9 12 20 19
25 16 5 -4 9 1 9 10 0 9 -4 14 -9 11 -5 -3 -11 1 -14 9 -4 8 -1 12 6 9 7 -2
18 8 24 23 10 21 10 30 0 42 -10 14 -10 14 5 3 11 -9 18 -10 23 -2 3 5 0 10
-7 10 -10 0 -10 2 1 9 7 5 9 11 5 13 -5 3 -3 3 5 1 15 -4 41 14 41 28 0 5 -8
9 -17 9 -15 0 -15 2 -4 9 10 7 19 4 27 -6 11 -17 55 -29 53 -15 -3 18 2 32 12
32 5 0 8 -3 6 -7 -3 -5 1 -13 8 -20 8 -7 15 -9 18 -5 2 4 2 1 1 -5 -2 -7 2
-13 8 -13 7 0 3 -7 -8 -16 -19 -15 -18 -15 3 -11 13 3 26 0 30 -6 3 -7 3 -9
-2 -5 -8 8 -34 -19 -35 -36 0 -6 6 -1 14 10 14 18 16 18 33 2 10 -11 13 -18 5
-18 -7 0 -12 5 -12 11 0 5 -5 7 -12 3 -8 -5 -5 -11 11 -18 14 -6 21 -16 18
-27 -3 -12 0 -16 10 -12 7 3 13 2 12 -3 -4 -22 2 -45 10 -40 7 5 22 -27 18
-38 -1 -2 7 -13 17 -25 11 -12 14 -21 8 -21 -7 0 -12 -5 -12 -11 0 -6 7 -8 16
-5 8 3 13 2 10 -2 -2 -4 4 -28 15 -52 16 -34 17 -45 7 -52 -9 -6 -5 -7 10 -3
18 5 22 2 22 -14 0 -11 9 -35 19 -53 11 -17 17 -36 14 -41 -4 -6 1 -8 10 -4
20 8 22 -3 5 -23 -11 -12 -10 -12 3 -2 9 6 20 8 24 4 5 -4 5 -1 1 6 -4 6 -2
12 3 12 6 0 11 -6 11 -12 0 -10 2 -10 9 0 4 8 12 13 17 12 18 -5 29 29 16 50
-6 11 -12 23 -12 27 0 5 5 0 11 -10 5 -9 15 -17 20 -17 6 0 8 4 5 8 -8 14 10
33 26 27 10 -4 15 -16 13 -31 -2 -20 0 -22 9 -12 6 7 18 19 26 27 13 12 13 13
-2 8 -10 -3 -20 -2 -23 3 -6 10 4 13 40 11 l20 -1 -20 9 c-11 5 -16 10 -11 10
5 1 4 7 -2 13 -9 12 -17 46 -12 58 12 32 5 46 -23 41 -5 -1 -6 3 -2 8 3 6 12
8 19 5 9 -4 13 2 11 20 -2 14 1 26 6 26 5 0 8 -10 6 -22 -1 -14 3 -22 11 -20
6 1 12 -2 12 -8 0 -5 -4 -10 -8 -10 -5 0 -9 -7 -9 -15 0 -8 4 -12 9 -9 4 3 8
0 8 -6 0 -7 -6 -10 -13 -7 -14 5 -18 -36 -4 -49 4 -5 5 0 1 9 -4 12 -2 17 6
15 13 -3 22 21 22 59 0 13 3 21 7 19 4 -3 13 0 21 6 12 8 12 9 -2 4 -10 -3
-20 -1 -23 4 -4 6 -2 10 4 10 6 0 8 6 5 13 -3 8 4 13 17 14 17 2 18 -1 9 -13
-9 -10 -9 -14 -1 -14 6 0 12 5 12 10 1 6 2 15 3 22 0 6 7 13 15 16 9 3 11 0 6
-8 -5 -8 -4 -11 3 -7 11 8 11 33 -1 42 -4 3 -5 2 -2 -2 5 -6 -24 -32 -37 -33
-5 0 -8 7 -8 15 0 8 6 14 13 13 7 -2 11 5 9 16 -2 10 1 15 7 12 11 -7 34 28
24 38 -3 3 -2 6 3 6 6 0 14 -4 20 -10 6 -6 10 -2 11 13 0 12 -1 16 -4 9 -3 -6
-9 -9 -14 -6 -6 3 -5 11 2 20 9 11 9 14 0 14 -7 0 -10 4 -6 10 3 5 11 8 18 6
7 -1 9 -1 5 1 -14 8 -8 25 6 20 11 -4 13 -1 9 10 -4 11 -2 14 5 9 7 -4 12 -3
12 3 0 5 -4 13 -10 16 -5 3 -10 1 -10 -5 0 -6 -5 -8 -10 -5 -6 4 -8 11 -5 16
3 5 -1 6 -9 3 -8 -3 -17 -12 -20 -20 -4 -10 -1 -13 7 -9 6 4 4 0 -6 -8 -11 -9
-14 -18 -8 -22 7 -4 7 -12 -1 -25 -9 -14 -15 -16 -21 -7 -6 8 -7 5 -3 -8 6
-19 5 -19 -8 -2 -8 11 -17 14 -20 8 -10 -16 29 -32 44 -18 10 9 11 9 8 -3 -3
-8 -12 -14 -21 -14 -9 1 -16 -1 -15 -5 0 -3 -1 -10 -2 -16 -1 -5 -3 -17 -4
-25 0 -8 -6 -14 -12 -13 -6 1 -10 -8 -10 -19 1 -16 -6 -22 -29 -24 -16 -1 -22
0 -12 3 9 2 17 9 17 14 0 6 -4 8 -9 4 -5 -3 -12 -1 -15 4 -4 5 1 8 10 7 8 -1
20 -9 25 -17 7 -11 9 -11 9 -1 0 8 -9 27 -20 42 -15 21 -17 31 -9 36 7 4 9 3
5 -4 -8 -14 8 -24 26 -17 16 7 20 34 7 51 -6 7 -3 16 6 24 8 7 15 9 15 5 0 -4
7 -2 16 6 14 12 14 14 -1 25 -15 11 -14 13 5 19 21 7 21 7 3 28 -9 12 -11 16
-3 10 18 -17 38 -17 22 -1 -7 7 -12 17 -12 23 0 5 5 2 11 -7 5 -10 15 -18 20
-18 6 0 2 15 -9 34 -19 32 -13 41 14 23 6 -3 14 -3 18 0 4 4 -4 13 -16 20
l-23 14 23 -6 c15 -4 22 -2 20 5 -2 7 4 15 12 17 13 4 13 3 0 -6 -13 -10 -13
-11 0 -11 13 0 13 -1 0 -10 -10 -6 -11 -10 -2 -10 6 0 12 -5 12 -11 0 -5 -6
-7 -12 -3 -9 5 -9 2 1 -9 11 -13 11 -17 1 -17 -8 0 -10 -3 -7 -6 3 -4 22 7 40
23 29 25 32 32 22 46 -13 18 -31 24 -20 8 3 -5 0 -13 -6 -17 -8 -5 -10 0 -6
18 5 19 3 25 -11 25 -9 0 -22 -4 -29 -9 -7 -6 -14 -4 -19 3 -4 7 -3 9 4 5 6
-3 14 -1 17 5 4 5 13 8 20 5 7 -2 16 2 19 10 5 12 1 14 -17 9 -15 -4 -18 -3
-8 3 7 5 9 12 5 14 -5 3 -3 3 5 1 23 -6 43 17 30 34 -7 7 -9 16 -5 20 3 3 6 0
6 -7 0 -9 5 -7 15 6 20 26 19 39 -2 23 -16 -12 -17 -12 -6 2 7 9 9 20 5 24 -4
5 -1 5 6 1 6 -4 12 -3 12 3 0 7 30 8 58 2 1 -1 -3 -7 -10 -15 -11 -11 -14 -11
-24 2 -8 11 -13 12 -18 4 -4 -7 -2 -12 5 -12 8 0 9 -3 0 -13 -6 -8 -7 -18 -3
-22 4 -5 1 -5 -5 -1 -7 4 -13 2 -13 -3 0 -10 14 -15 33 -12 10 2 9 -17 -2 -24
-5 -3 -12 -1 -16 5 -4 6 -11 8 -16 4 -5 -3 -7 -9 -4 -14 3 -5 1 -11 -4 -15 -6
-3 -8 -13 -5 -23 5 -15 4 -15 -6 -2 -8 10 -10 11 -8 2 2 -8 7 -13 12 -12 5 1
12 -4 17 -12 7 -11 10 -11 21 0 11 11 10 13 -1 10 -7 -2 -16 3 -18 10 -3 7 1
10 10 6 8 -3 18 -1 22 5 4 7 -1 8 -12 4 -13 -5 -12 0 7 19 14 14 32 28 40 31
10 4 8 6 -6 6 -23 1 -48 24 -37 34 3 4 11 0 17 -8 8 -11 15 -12 26 -4 12 9 12
10 -3 5 -12 -4 -17 -2 -14 6 2 7 10 12 16 10 7 -1 10 2 6 8 -3 5 0 10 7 10 8
0 6 5 -4 11 -10 5 -18 15 -18 21 0 7 6 6 15 -2 9 -7 18 -10 22 -7 10 10 12 58
2 51 -5 -3 -9 -1 -9 4 0 16 13 22 27 11 9 -9 13 -8 13 0 0 6 -4 11 -10 11 -5
0 -10 5 -10 11 0 5 4 8 8 5 4 -2 9 6 10 20 1 13 -3 24 -9 24 -5 0 -8 4 -4 10
3 5 12 7 19 4 7 -3 19 2 26 11 7 9 9 15 4 13 -10 -3 -14 4 -14 26 0 9 7 13 18
11 12 -2 18 2 17 13 -3 30 -28 72 -38 65 -6 -3 -2 5 9 19 10 15 23 25 29 25
17 -3 13 43 -5 53 -10 5 -20 7 -24 5 -3 -3 1 3 9 13 14 15 17 15 25 2 7 -10
10 -11 10 -2 0 7 -10 17 -22 23 -22 9 -22 9 3 6 16 -2 26 1 26 9 0 7 -4 11 -8
8 -18 -11 -2 46 16 60 20 15 19 15 -5 17 -75 4 -331 1 -336 -4 -3 -3 4 -8 16
-12 13 -4 19 -12 16 -21 -3 -9 -1 -12 4 -9 6 3 10 1 10 -6 0 -7 3 -9 7 -6 9 9
36 -31 29 -42 -4 -5 -1 -11 4 -13 11 -3 -40 -138 -61 -165 -6 -7 -8 -13 -5
-13 4 0 1 -10 -6 -22 -7 -13 -13 -25 -13 -28 0 -3 -10 -26 -22 -52 -12 -25
-24 -56 -28 -67 -3 -12 -11 -21 -16 -21 -6 0 -8 -4 -4 -9 3 -5 -8 -38 -24 -73
-66 -145 -162 -364 -164 -373 -1 -5 -10 -18 -19 -29 -10 -10 -14 -24 -11 -30
4 -6 -1 -5 -10 3 -18 14 -23 26 -8 17 5 -3 11 1 15 9 3 8 1 15 -5 15 -6 0 -7
4 -4 10 4 6 -1 7 -11 3 -11 -4 -15 -3 -10 5 3 6 -2 15 -11 21 -10 6 -13 11 -7
11 5 0 14 -4 20 -9 5 -6 16 -4 28 5 17 12 18 14 3 14 -9 0 -17 -5 -17 -11 0
-5 -5 -7 -10 -4 -7 4 -6 13 1 26 6 12 8 23 5 27 -3 3 -6 -1 -6 -9 0 -12 -2
-11 -11 1 -8 12 -9 10 -4 -9 5 -17 4 -22 -6 -18 -15 5 -15 6 -5 52 6 30 6 30
-7 6 -9 -15 -17 -20 -21 -12 -4 6 -1 11 6 11 8 1 5 7 -7 16 -13 11 -15 14 -5
12 9 -2 16 -1 16 2 0 3 6 16 13 30 10 21 10 22 -1 9 -7 -9 -20 -14 -28 -12
-13 4 -13 3 0 -6 13 -9 12 -11 -3 -11 -11 0 -17 5 -14 13 2 6 -5 24 -15 40
-11 15 -16 27 -12 27 4 0 -1 9 -10 19 -10 11 -13 22 -8 25 12 7 34 -18 24 -29
-4 -4 3 -2 16 4 25 13 30 23 7 15 -8 -4 -15 -1 -15 4 0 6 -9 14 -21 17 -17 6
-20 13 -16 34 3 15 1 33 -4 41 -8 12 -9 10 -4 -7 3 -12 1 -24 -4 -28 -7 -4 -8
1 -4 11 4 11 3 15 -4 11 -14 -9 -5 32 11 52 8 11 8 13 -1 8 -7 -5 -16 1 -23
13 -6 11 -15 20 -21 20 -5 0 0 -10 11 -22 12 -13 16 -24 10 -26 -5 -2 -7 -9
-3 -15 3 -7 2 -8 -3 -4 -5 5 -9 16 -9 25 0 9 -5 16 -12 15 -12 -2 -12 14 0 33
7 13 -1 24 -17 24 -6 0 -4 -5 4 -11 10 -7 11 -9 2 -7 -8 2 -12 6 -10 10 2 3
-5 15 -15 25 -9 11 -15 22 -12 25 5 5 -71 178 -79 178 -2 0 -11 -21 -21 -47
-10 -27 -26 -66 -36 -88 -9 -22 -59 -138 -110 -257 -50 -120 -95 -218 -100
-218 -5 0 -6 -7 -3 -15 4 -8 1 -15 -5 -15 -6 0 -11 -7 -11 -15 0 -24 -27 -72
-44 -78 -10 -4 -13 -1 -9 8 3 8 10 12 16 8 6 -4 7 -1 3 6 -5 7 -14 10 -22 7
-8 -3 -11 0 -7 9 4 11 10 12 26 4 22 -10 22 -10 2 6 -11 9 -20 21 -21 28 -2
26 -5 27 -23 18 -16 -9 -18 -8 -14 8 3 11 11 17 18 15 7 -3 15 -1 19 4 8 13
-26 11 -43 -2 -12 -9 -13 -8 -8 6 3 10 2 20 -4 23 -5 4 -7 10 -4 15 3 4 -2 11
-11 14 -8 3 -13 10 -10 15 3 5 -1 14 -9 21 -8 7 -12 16 -9 21 3 5 0 9 -6 9 -7
0 -6 5 2 14 14 14 42 10 32 -5 -3 -5 -11 -6 -17 -3 -8 5 -8 3 0 -6 15 -16 22
-11 27 17 4 16 -1 20 -19 17 -13 -1 -28 -5 -33 -8 -10 -6 -10 33 1 50 7 13 -1
24 -17 24 -6 0 -5 -4 2 -9 11 -7 10 -9 -3 -14 -9 -4 -13 -3 -10 2 3 5 1 12 -5
16 -16 10 -2 24 20 20 12 -2 18 0 15 5 -3 4 -16 7 -30 6 -13 -2 -22 1 -19 5 3
5 0 9 -6 9 -6 0 -4 8 5 17 16 15 16 18 1 28 -9 7 -13 15 -9 19 4 4 -1 4 -11 0
-13 -5 -17 -4 -12 4 3 6 -4 18 -16 26 -22 16 -22 16 -1 16 11 0 24 7 27 16 4
10 2 13 -7 7 -18 -11 -38 -13 -31 -2 3 5 0 9 -7 9 -7 0 -5 6 6 13 14 11 15 16
5 22 -8 5 -11 4 -7 -2 3 -5 0 -10 -8 -10 -11 0 -12 4 -4 14 6 7 18 13 25 13 8
0 14 5 14 10 0 7 -6 7 -19 0 -27 -14 -30 -13 -24 13 4 18 3 19 -6 7 -8 -11
-11 -11 -12 -2 -4 33 -6 37 -18 34 -7 -1 -10 1 -7 6 2 4 1 14 -4 22 -5 9 -5
19 2 27 6 8 8 17 4 20 -4 4 -11 1 -16 -7 -9 -13 -10 -13 -11 0 -1 8 -1 25 -1
38 1 14 -3 20 -10 16 -6 -4 -8 -3 -4 4 3 5 1 12 -6 14 -8 3 -6 7 5 11 10 4 16
2 14 -6 -1 -7 4 -11 12 -9 7 1 19 -2 26 -8 10 -8 15 -7 21 2 4 7 4 10 -1 6 -4
-4 -20 1 -34 11 -14 10 -34 17 -44 16 -9 -2 -15 0 -12 5 3 5 -1 10 -7 13 -10
3 -10 8 1 18 12 12 13 12 6 0 -6 -10 -4 -12 5 -6 9 6 11 4 5 -5 -6 -9 -4 -11
5 -5 9 6 11 4 5 -5 -5 -9 -4 -11 4 -6 6 4 19 2 28 -6 14 -11 16 -11 8 1 -6 10
-4 13 6 9 10 -4 15 1 15 13 0 16 -2 16 -16 4 -14 -13 -19 -13 -38 1 -12 8 -20
20 -17 25 9 13 26 11 22 -2 -1 -6 5 -14 13 -16 10 -3 11 -2 4 4 -6 4 -10 16
-8 25 2 15 -1 16 -17 8 -15 -8 -19 -7 -19 5 0 8 0 18 -1 22 0 4 5 9 13 11 9 2
8 0 -2 -7 -13 -9 -13 -11 2 -11 9 0 20 9 23 20 3 11 11 20 16 20 5 0 9 4 9 9
0 5 -11 8 -25 7 -13 -2 -22 1 -19 5 3 5 12 9 20 9 20 0 17 20 -3 21 -67 4
-294 3 -317 -1z m318 -54 c-3 -9 -13 -12 -27 -8 -21 6 -21 6 3 13 14 4 26 7
27 8 1 1 0 -5 -3 -13z m-41 -60 c3 -8 0 -17 -7 -19 -10 -4 -12 1 -9 14 6 23 9
24 16 5z m1624 -57 c1 -12 -1 -18 -4 -15 -4 3 -18 -4 -32 -16 -22 -20 -23 -20
-8 -2 9 11 14 24 10 29 -5 4 -2 4 6 0 11 -6 13 -4 8 8 -4 10 -1 17 6 17 7 0
13 -10 14 -21z m-24 -97 c16 -17 10 -46 -9 -42 -4 1 -11 -7 -15 -17 -7 -17 -8
-17 -8 0 -1 15 -5 16 -21 7 -14 -7 -20 -7 -20 0 0 5 7 10 16 10 9 0 12 5 8 13
-6 9 -5 9 8 -1 21 -17 48 12 29 31 -10 9 -11 8 -6 -5 4 -10 3 -18 -2 -18 -5 0
-9 9 -10 20 -2 25 9 26 30 2z m-1723 -52 c0 -5 -2 -10 -4 -10 -3 0 -8 5 -11
10 -3 6 -1 10 4 10 6 0 11 -4 11 -10z m1675 -20 c-3 -5 1 -10 9 -10 8 0 18 -5
22 -12 5 -7 2 -9 -7 -6 -8 3 -23 0 -32 -7 -16 -11 -16 -13 -2 -19 14 -5 14 -9
1 -34 -14 -26 -56 -42 -56 -21 0 6 -6 7 -12 3 -10 -5 -10 -3 0 7 10 11 15 11
20 2 6 -9 11 -6 20 8 12 19 11 20 -10 15 -13 -3 -17 -3 -10 0 6 3 10 10 7 15
-4 5 2 6 12 2 16 -6 17 -5 3 12 -9 11 -10 16 -2 11 7 -4 12 -2 12 4 0 6 5 8
12 4 7 -5 9 -2 5 8 -3 9 -3 19 0 22 10 10 15 7 8 -4z m-70 -130 c3 -5 12 -7
19 -4 16 6 40 -21 31 -36 -5 -8 -10 -8 -20 0 -10 8 -16 7 -24 -7 -6 -10 -11
-13 -11 -6 0 7 -6 11 -12 9 -7 -1 -10 -1 -5 1 4 3 7 9 7 14 0 6 -5 7 -12 3 -7
-5 -8 -3 -3 6 6 10 11 9 21 -4 6 -9 15 -13 18 -8 6 10 -9 26 -34 35 -12 4 -12
6 2 6 9 1 19 -3 23 -9z m-1295 -94 c0 -2 -7 -7 -16 -10 -8 -3 -12 -2 -9 4 6
10 25 14 25 6z m1215 -56 c3 -5 1 -10 -4 -10 -6 0 -11 5 -11 10 0 6 2 10 4 10
3 0 8 -4 11 -10z m49 -19 c3 -5 -2 -15 -12 -22 -15 -12 -16 -12 -5 2 7 9 10
19 6 22 -3 4 -4 7 0 7 3 0 8 -4 11 -9z m-747 -94 c0 -8 -6 -14 -14 -14 -9 0
-10 4 -2 14 6 7 12 13 14 13 1 0 2 -6 2 -13z m707 -27 c-19 -20 -20 -20 -20
-1 0 11 4 18 7 15 4 -2 11 1 14 7 4 5 10 8 13 4 3 -3 -3 -14 -14 -25z m-741
-25 c-3 -9 -8 -14 -10 -11 -3 3 -2 9 2 15 9 16 15 13 8 -4z m40 -2 c-4 -11 -3
-14 6 -9 9 6 9 3 -1 -13 -15 -25 -32 -22 -35 5 -3 18 -2 18 6 -1 5 -11 10 -15
11 -10 1 6 3 15 5 20 1 6 3 13 3 18 1 4 4 7 7 7 2 0 1 -7 -2 -17z m-63 -13 c0
-5 -5 -10 -11 -10 -5 0 -7 5 -4 10 3 6 8 10 11 10 2 0 4 -4 4 -10z m-5 -48
c-3 -3 -11 0 -18 7 -9 10 -8 11 6 5 10 -3 15 -9 12 -12z m703 -22 c-7 -11 -14
-17 -17 -15 -2 3 1 11 7 18 7 8 8 18 4 22 -4 5 -1 5 5 1 10 -5 10 -11 1 -26z
m-63 -18 c-3 -3 -11 0 -18 7 -9 10 -8 11 6 5 10 -3 15 -9 12 -12z m-948 -22
c-2 -11 -7 -23 -12 -27 -4 -5 -5 -2 -1 5 4 6 2 12 -4 12 -7 0 -6 5 2 15 17 19
18 19 15 -5z m910 -52 c-3 -8 -6 -5 -6 6 -1 11 2 17 5 13 3 -3 4 -12 1 -19z
m67 -11 c-3 -8 -12 -14 -21 -14 -13 0 -13 2 3 14 10 7 19 13 21 13 1 0 0 -6
-3 -13z m-709 -66 c-3 -5 -1 -13 5 -16 12 -8 -5 -35 -22 -35 -7 0 -6 5 1 13 6
8 8 17 5 20 -6 6 3 27 12 27 3 0 3 -4 -1 -9z m-80 -10 c3 -5 2 -12 -3 -15 -5
-3 -9 1 -9 9 0 17 3 19 12 6z m32 -41 c11 -16 9 -21 -9 -35 -16 -10 -18 -15
-8 -16 11 0 11 -2 2 -6 -6 -2 -9 -10 -5 -16 3 -7 2 -8 -3 -4 -5 5 -9 14 -9 20
0 5 -6 12 -14 15 -9 3 -11 0 -6 -8 6 -9 4 -11 -5 -5 -10 6 -10 11 3 20 9 7 13
16 9 20 -4 5 -2 6 3 2 6 -3 17 -2 25 4 10 6 11 9 3 9 -7 0 -13 5 -13 10 0 16
14 11 27 -10z m680 2 c-1 -18 -27 -27 -27 -10 0 4 5 8 11 8 5 0 7 5 4 10 -3 6
-2 10 4 10 5 0 9 -8 8 -18z m-66 -79 c-12 -20 -14 -14 -5 12 4 9 9 14 11 11 3
-2 0 -13 -6 -23z m-17 -38 c-4 -8 -11 -12 -16 -9 -6 4 -5 10 3 15 19 12 19 11
13 -6z m28 -42 c-10 -8 -19 -9 -27 -3 -7 5 -15 7 -18 3 -4 -3 -7 -1 -7 5 0 16
13 15 29 0 10 -11 12 -10 11 2 -1 8 -2 24 -1 35 1 18 3 17 15 -5 11 -21 11
-27 -2 -37z m-88 -88 c-7 -18 -30 -14 -30 6 0 10 4 15 8 13 4 -3 8 1 8 8 0 10
2 10 9 -1 5 -8 7 -19 5 -26z"/>
<path d="M1825 1209 c-4 -6 -5 -12 -2 -15 2 -3 7 2 10 11 7 17 1 20 -8 4z"/>
<path d="M1807 1149 c7 -7 15 -10 18 -7 3 3 -2 9 -12 12 -14 6 -15 5 -6 -5z"/>
<path d="M834 524 c-18 -14 -18 -15 4 -4 12 6 22 13 22 15 0 8 -5 6 -26 -11z"/>
<path d="M1940 1603 c0 -6 8 -17 18 -24 16 -13 16 -13 2 6 -8 11 -16 22 -17
24 -2 2 -3 0 -3 -6z"/>
<path d="M1905 1421 c-2 -4 6 -18 16 -31 16 -20 18 -21 10 -4 -7 14 -7 24 0
31 6 6 4 10 -6 10 -9 0 -18 -3 -20 -6z"/>
<path d="M113 1403 c4 -3 2 -12 -3 -19 -8 -9 -6 -12 7 -10 10 0 17 -5 16 -11
-2 -7 2 -13 8 -13 6 0 8 6 5 13 -3 6 -9 20 -12 30 -4 9 -11 17 -17 17 -6 0 -7
-3 -4 -7z"/>
<path d="M349 1408 c-7 -25 -5 -36 7 -31 16 6 19 33 4 33 -5 0 -10 -1 -11 -2z"/>
<path d="M388 1373 c7 -3 16 -2 19 1 4 3 -2 6 -13 5 -11 0 -14 -3 -6 -6z"/>
<path d="M371 1346 c-8 -10 -6 -19 9 -38 10 -14 16 -29 12 -33 -4 -4 3 -2 16
4 12 6 22 14 22 17 0 3 -5 2 -10 -1 -12 -8 -40 12 -40 27 0 6 7 5 15 -2 9 -7
18 -10 22 -6 3 3 1 6 -6 6 -7 0 -9 5 -6 10 4 6 1 9 -7 8 -7 -2 -12 3 -10 10 3
16 -3 15 -17 -2z"/>
<path d="M1030 1319 c0 -5 5 -7 10 -4 6 3 10 8 10 11 0 2 -4 4 -10 4 -5 0 -10
-5 -10 -11z"/>
<path d="M135 1300 c3 -5 8 -10 11 -10 2 0 4 5 4 10 0 6 -5 10 -11 10 -5 0 -7
-4 -4 -10z"/>
<path d="M180 1250 c-9 -6 -10 -10 -3 -10 6 0 15 5 18 10 8 12 4 12 -15 0z"/>
<path d="M1070 1239 c0 -5 5 -7 10 -4 6 3 10 8 10 11 0 2 -4 4 -10 4 -5 0 -10
-5 -10 -11z"/>
<path d="M175 1220 c-3 -6 1 -7 9 -4 18 7 21 14 7 14 -6 0 -13 -4 -16 -10z"/>
<path d="M1086 1217 c-17 -12 -17 -14 1 -27 14 -11 16 -11 6 0 -10 11 -9 16 5
26 22 17 11 18 -12 1z"/>
<path d="M450 1216 c0 -2 8 -10 18 -17 15 -13 16 -12 3 4 -13 16 -21 21 -21
13z"/>
<path d="M435 1180 c3 -5 8 -10 11 -10 2 0 4 5 4 10 0 6 -5 10 -11 10 -5 0 -7
-4 -4 -10z"/>
<path d="M475 1150 c-4 -11 -11 -17 -17 -14 -7 4 -8 2 -4 -4 10 -16 32 -5 33
18 2 26 -4 26 -12 0z"/>
<path d="M215 1130 c-3 -5 -2 -18 4 -27 7 -14 9 -12 8 10 -2 30 -3 31 -12 17z"/>
<path d="M495 1111 c-3 -5 -2 -12 3 -15 5 -3 9 1 9 9 0 17 -3 19 -12 6z"/>
<path d="M240 1106 c0 -2 7 -7 16 -10 8 -3 12 -2 9 4 -6 10 -25 14 -25 6z"/>
<path d="M1840 1080 c-8 -5 -12 -12 -9 -15 4 -3 12 1 19 10 14 17 11 19 -10 5z"/>
<path d="M267 1071 c6 -7 9 -20 6 -27 -3 -8 -3 -14 0 -14 14 0 14 30 -1 41
-14 11 -15 11 -5 0z"/>
<path d="M499 1053 c-13 -17 -13 -17 6 -3 11 8 22 16 24 17 2 2 0 3 -6 3 -6 0
-17 -8 -24 -17z"/>
<path d="M1187 1059 c7 -7 15 -10 18 -7 3 3 -2 9 -12 12 -14 6 -15 5 -6 -5z"/>
<path d="M1240 1020 c-9 -6 -10 -10 -3 -10 6 0 15 5 18 10 8 12 4 12 -15 0z"/>
<path d="M270 999 c0 -5 5 -7 10 -4 6 3 10 8 10 11 0 2 -4 4 -10 4 -5 0 -10
-5 -10 -11z"/>
<path d="M300 1004 c0 -6 7 -19 16 -30 14 -18 14 -18 3 6 -14 31 -19 36 -19
24z"/>
<path d="M555 990 c-3 -5 -3 -15 1 -22 5 -7 2 -9 -8 -6 -8 4 -15 0 -15 -7 0
-10 5 -11 17 -5 10 5 21 6 26 2 5 -4 2 1 -5 10 -7 9 -10 22 -6 28 3 5 4 10 1
10 -3 0 -8 -4 -11 -10z"/>
<path d="M1228 933 c7 -3 16 -2 19 1 4 3 -2 6 -13 5 -11 0 -14 -3 -6 -6z"/>
<path d="M314 919 c-4 -7 -3 -9 4 -5 5 3 13 0 15 -6 4 -9 6 -10 6 -1 1 17 -16
25 -25 12z"/>
<path d="M1214 908 c21 -32 28 -36 19 -10 -6 15 -5 16 13 2 18 -14 18 -14 5 3
-8 9 -16 15 -19 12 -3 -3 -12 1 -20 8 -11 9 -11 4 2 -15z"/>
<path d="M1760 920 c-9 -6 -10 -10 -3 -10 6 0 15 5 18 10 8 12 4 12 -15 0z"/>
<path d="M559 877 c10 -12 17 -14 26 -7 6 5 16 6 20 2 5 -4 5 -1 1 6 -6 9 -12
10 -20 3 -9 -7 -17 -7 -26 2 -12 10 -12 9 -1 -6z"/>
<path d="M1641 858 c6 -14 21 -30 33 -35 17 -8 25 -5 45 21 l25 31 -27 -24
c-29 -26 -61 -23 -50 6 3 10 3 15 -2 11 -4 -4 -14 -3 -22 4 -12 10 -12 7 -2
-14z"/>
<path d="M593 838 c1 -15 7 -30 14 -33 10 -3 11 0 5 13 -5 9 -12 24 -15 32 -3
8 -5 3 -4 -12z"/>
<path d="M340 846 c0 -2 8 -10 18 -17 15 -13 16 -12 3 4 -13 16 -21 21 -21 13z"/>
<path d="M626 819 c4 -8 30 -6 38 2 3 3 -5 5 -19 5 -13 0 -22 -3 -19 -7z"/>
<path d="M1710 810 c-6 -11 -8 -20 -6 -20 3 0 10 9 16 20 6 11 8 20 6 20 -3 0
-10 -9 -16 -20z"/>
<path d="M1033 803 c4 -3 3 -11 -2 -17 -6 -7 -2 -11 14 -12 21 -2 22 -1 7 17
-9 11 -18 19 -21 19 -2 0 -1 -3 2 -7z"/>
<path d="M390 789 c0 -5 -5 -7 -12 -3 -7 4 -8 3 -4 -4 4 -6 13 -9 21 -6 8 4
12 10 9 15 -7 12 -14 11 -14 -2z"/>
<path d="M666 780 c5 -8 9 -18 9 -22 0 -3 3 -9 7 -13 3 -4 5 0 4 9 -1 9 -8 22
-16 29 -10 10 -11 9 -4 -3z"/>
<path d="M413 755 c0 -8 4 -12 9 -9 5 3 6 10 3 15 -9 13 -12 11 -12 -6z"/>
<path d="M940 759 c-10 -6 -11 -9 -2 -9 7 0 4 -8 -8 -20 -21 -21 -27 -44 -9
-38 6 2 10 8 10 13 0 6 9 20 20 31 22 23 13 39 -11 23z"/>
<path d="M1042 731 c-11 -7 -10 -9 3 -14 9 -4 14 -3 10 2 -3 5 1 12 7 14 7 3
9 6 3 6 -5 0 -16 -3 -23 -8z"/>
<path d="M1671 731 c-8 -5 -9 -11 -3 -15 5 -3 12 1 16 9 6 17 6 18 -13 6z"/>
<path d="M1331 714 c0 -11 3 -14 6 -6 3 7 2 16 -1 19 -3 4 -6 -2 -5 -13z"/>
<path d="M1030 705 c0 -5 5 -17 10 -25 5 -8 10 -10 10 -5 0 6 -5 17 -10 25 -5
8 -10 11 -10 5z"/>
<path d="M975 690 c3 -5 8 -10 11 -10 2 0 4 5 4 10 0 6 -5 10 -11 10 -5 0 -7
-4 -4 -10z"/>
<path d="M1066 678 c4 -5 12 -7 19 -4 8 3 16 1 19 -5 2 -5 3 -4 2 2 -1 7 -12
13 -24 14 -11 1 -19 -2 -16 -7z"/>
<path d="M1630 645 c0 -8 4 -15 10 -15 5 0 7 7 4 15 -4 8 -8 15 -10 15 -2 0
-4 -7 -4 -15z"/>
<path d="M940 640 c0 -3 16 -7 35 -7 19 0 33 2 30 5 -7 8 -65 10 -65 2z"/>
<path d="M1546 642 c-3 -5 1 -9 9 -9 8 0 15 4 15 9 0 4 -4 8 -9 8 -6 0 -12 -4
-15 -8z"/>
<path d="M860 610 c-12 -23 2 -27 19 -6 8 9 8 16 2 20 -6 4 -15 -3 -21 -14z"/>
<path d="M993 595 c0 -8 4 -12 9 -9 5 3 6 10 3 15 -9 13 -12 11 -12 -6z"/>
<path d="M478 593 c7 -3 16 -2 19 1 4 3 -2 6 -13 5 -11 0 -14 -3 -6 -6z"/>
<path d="M950 589 c0 -5 5 -7 10 -4 6 3 10 8 10 11 0 2 -4 4 -10 4 -5 0 -10
-5 -10 -11z"/>
<path d="M1150 582 c0 -5 7 -9 15 -9 8 0 12 4 9 9 -3 4 -9 8 -15 8 -5 0 -9 -4
-9 -8z"/>
<path d="M1155 550 c-4 -6 1 -7 11 -3 13 5 15 3 9 -7 -5 -9 -4 -11 4 -6 6 4 9
12 6 17 -8 12 -22 12 -30 -1z"/>
<path d="M509 483 c-13 -16 -12 -17 3 -5 9 8 23 10 29 6 8 -4 9 -3 5 4 -10 17
-21 15 -37 -5z"/>
<path d="M1196 438 c3 -5 10 -6 15 -3 13 9 11 12 -6 12 -8 0 -12 -4 -9 -9z"/>
<path d="M1539 433 c-13 -16 -12 -17 4 -4 16 13 21 21 13 21 -2 0 -10 -8 -17
-17z"/>
<path d="M558 423 c7 -3 16 -2 19 1 4 3 -2 6 -13 5 -11 0 -14 -3 -6 -6z"/>
<path d="M566 402 c-3 -5 1 -9 9 -9 8 0 12 4 9 9 -3 4 -7 8 -9 8 -2 0 -6 -4
-9 -8z"/>
<path d="M1238 383 c7 -3 16 -2 19 1 4 3 -2 6 -13 5 -11 0 -14 -3 -6 -6z"/>
<path d="M1439 365 c-1 -3 -2 -8 -3 -12 -1 -5 -5 -14 -9 -20 -9 -14 -1 -33 14
-33 5 0 9 5 9 11 0 5 -4 7 -10 4 -5 -3 -10 -1 -10 4 0 6 4 11 9 11 6 0 9 9 8
20 -1 19 -5 26 -8 15z"/>
<path d="M1270 341 c0 -6 4 -13 10 -16 6 -3 7 1 4 9 -7 18 -14 21 -14 7z"/>
<path d="M1495 339 c-4 -6 -5 -12 -2 -15 2 -3 7 2 10 11 7 17 1 20 -8 4z"/>
<path d="M1406 282 c-2 -4 4 -8 14 -8 10 0 16 4 14 8 -3 4 -9 8 -14 8 -5 0
-11 -4 -14 -8z"/>
</g>
</svg>
